<?xml version="1.0" standalone="no"?>
<!DOCTYPE svg PUBLIC "-//W3C//DTD SVG 20010904//EN"
 "http://www.w3.org/TR/2001/REC-SVG-20010904/DTD/svg10.dtd">
<svg version="1.0" xmlns="http://www.w3.org/2000/svg"
 width="260.000000pt" height="260.000000pt" viewBox="0 0 260.000000 260.000000"
 preserveAspectRatio="xMidYMid meet">
<metadata>
Created by potrace 1.14, written by Peter Selinger 2001-2017
</metadata>
<g transform="translate(0.000000,260.000000) scale(0.100000,-0.100000)"
fill="#000000" stroke="none">
<path d="M510 1770 l0 -280 65 0 65 0 0 230 0 230 105 0 105 0 0 50 0 50 -170
0 -170 0 0 -280z"/>
<path d="M1080 1770 l0 -280 65 0 65 0 0 280 0 280 -65 0 -65 0 0 -280z"/>
<path d="M1516 2018 c-3 -18 -10 -118 -16 -223 -6 -104 -13 -216 -16 -247 l-6
-58 59 0 60 0 6 137 c4 75 7 167 7 204 0 78 14 99 24 36 6 -39 64 -258 87
-334 10 -31 13 -33 59 -33 l49 0 45 143 c25 78 53 173 64 211 l19 70 6 -79 c4
-43 7 -123 7 -179 0 -56 3 -118 6 -138 l7 -38 59 0 59 0 -6 83 c-9 134 -25
409 -25 445 l0 32 -83 0 -84 0 -41 -132 c-23 -73 -46 -153 -52 -178 -6 -25
-13 -52 -16 -60 -3 -8 -20 44 -39 115 -18 72 -41 158 -51 193 l-17 62 -83 0
-83 0 -5 -32z"/>
<path d="M1603 1111 c-82 -21 -149 -83 -184 -171 -23 -57 -18 -186 9 -245 48
-104 117 -149 232 -149 121 -1 199 44 247 142 24 50 28 68 28 147 -1 74 -5 98
-24 135 -30 58 -67 97 -114 121 -42 22 -145 33 -194 20z m154 -134 c70 -77 66
-227 -8 -301 -37 -36 -42 -38 -86 -33 -38 4 -54 12 -79 40 -81 88 -57 286 40
328 41 17 99 3 133 -34z"/>
<path d="M680 830 l0 -280 65 0 65 0 0 120 0 120 105 0 105 0 0 -120 0 -120
65 0 65 0 0 280 0 280 -65 0 -65 0 0 -105 0 -105 -105 0 -105 0 0 105 0 105
-65 0 -65 0 0 -280z"/>
</g>
</svg>
